PathFileType	4	(X/Y/Z)	C:\Users\Basilio\Documents\Thesis Gigler\squatting_fais\c3dfiles\073\SLS_back_pre3\markers_experimental.trc
DataRate	CameraRate	NumFrames	NumMarkers	Units	OrigDataRate	OrigDataStartFrame	OrigNumFrames
200.000000	200.000000	4	61	mm	200.000000	493	1317
Frame#	Time	FHD			LBHD			RBHD			C7			T10			CLAV			LSHO			LUUPA			LMUPA			LDUPA			LLEP			LMEP			LRAD			LUL			LRFIN			RSHO			RUPA1			RMUPA			RDUPA			RLEP			RMEP			RUL			RUFIN			LASI			RASI			USACR			LSACR			RSACR			LTHI1			LTHI2			LTHI3			LTHI4			LLFC			LMFC			LTIB1			LTIB2			LTIB3			LTIB4			LLMAL			LMMAL			LHEE			LMT1			LMT2			LMT5			RTHI			RTHI2			RTHI3			RTHI4			RLFC			RMFC			RTIB1			RTIB2			RTIB3			RTIB4			RLMAL			RMMAL			RHEE			RMT1			RMT2			RMT5			RRAD			
		X1	Y1	Z1	X2	Y2	Z2	X3	Y3	Z3	X4	Y4	Z4	X5	Y5	Z5	X6	Y6	Z6	X7	Y7	Z7	X8	Y8	Z8	X9	Y9	Z9	X10	Y10	Z10	X11	Y11	Z11	X12	Y12	Z12	X13	Y13	Z13	X14	Y14	Z14	X15	Y15	Z15	X16	Y16	Z16	X17	Y17	Z17	X18	Y18	Z18	X19	Y19	Z19	X20	Y20	Z20	X21	Y21	Z21	X22	Y22	Z22	X23	Y23	Z23	X24	Y24	Z24	X25	Y25	Z25	X26	Y26	Z26	X27	Y27	Z27	X28	Y28	Z28	X29	Y29	Z29	X30	Y30	Z30	X31	Y31	Z31	X32	Y32	Z32	X33	Y33	Z33	X34	Y34	Z34	X35	Y35	Z35	X36	Y36	Z36	X37	Y37	Z37	X38	Y38	Z38	X39	Y39	Z39	X40	Y40	Z40	X41	Y41	Z41	X42	Y42	Z42	X43	Y43	Z43	X44	Y44	Z44	X45	Y45	Z45	X46	Y46	Z46	X47	Y47	Z47	X48	Y48	Z48	X49	Y49	Z49	X50	Y50	Z50	X51	Y51	Z51	X52	Y52	Z52	X53	Y53	Z53	X54	Y54	Z54	X55	Y55	Z55	X56	Y56	Z56	X57	Y57	Z57	X58	Y58	Z58	X59	Y59	Z59	X60	Y60	Z60	X61	Y61	Z61	

494	2.465	-31.56316566467286	1411.549194335938	-757.1771240234376	-167.7234039306641	1396.0302734375	-785.5042724609377	-196.145004272461	1379.242797851563	-653.2860717773439	-234.3586425781251	1305.879150390625	-717.6917724609376	-432.3347473144532	1039.645874023438	-735.8878173828126	-149.4620208740235	1179.73779296875	-717.5264892578126	-159.9588317871094	1257.147094726563	-846.8857421875002	-86.86704254150392	1185.186767578125	-946.4741821289065	-45.71928024291993	1198.665649414063	-921.0197753906252	-27.2554111480713	1152.0576171875	-955.662292480469	74.45121002197267	1119.010620117188	-957.5354614257815	65.16830444335939	1062.3994140625	-916.7415771484377	329.8647460937501	1127.720703125	-834.537292480469	336.7850341796876	1125.00244140625	-908.7341308593752	412.479217529297	1131.756591796875	-823.283142089844	-149.7411499023438	1236.986206054688	-581.7167358398439	-78.69547271728517	1134.251220703125	-476.3751525878907	-37.11892318725587	1151.465209960938	-493.2593994140626	-19.14154052734375	1099.328491210938	-469.7649536132814	71.3325653076172	1074.00537109375	-468.9499511718751	65.00500488281251	1021.58349609375	-533.0731201171876	334.2120971679688	1107.115966796875	-512.5471801757814	414.3681640625001	1126.74267578125	-589.6942749023439	-358.3110046386719	818.9353637695315	-859.7872314453127	-355.4066772460938	844.2949218750002	-617.7711791992189	-505.8583374023439	949.3508911132815	-734.9797363281251	-525.9153442382814	924.5779418945315	-761.0989379882814	-531.7612915039064	928.3878173828127	-704.3468627929689	-415.1068115234376	512.2020263671876	-912.9772949218752	-379.7080688476563	436.5342102050782	-894.9327392578127	-339.1183166503907	439.9492492675782	-866.8292236328127	-411.271697998047	385.8857421875001	-884.4746093750002	-424.3944396972657	342.6165466308594	-885.005310058594	-432.9674682617189	342.9916992187501	-748.9569702148439	-591.7849121093751	264.0748596191407	-835.7952880859377	-635.4860229492189	315.0629272460938	-890.790466308594	-639.2824096679689	277.4684448242188	-868.7754516601565	-717.9682006835939	272.6056213378907	-836.6636962890627	-839.4763793945315	323.8160095214844	-868.646423339844	-815.2855224609377	318.7900085449219	-782.5866699218752	-869.6953125000002	386.1374816894532	-829.4981689453127	-880.1890258789065	166.6344146728516	-775.7032470703127	-880.399841308594	161.2620391845703	-814.9403076171877	-904.6477050781252	192.878402709961	-868.655944824219	-344.7588195800782	657.3742065429689	-551.9545288085939	-281.5854187011719	638.7595825195314	-560.3303833007814	-257.8082580566407	660.1356811523439	-567.9786376953126	-255.448471069336	562.4324951171876	-585.6556396484376	-171.8636169433594	458.6701049804689	-624.3352050781251	-178.708251953125	465.4275817871095	-750.6503295898439	-191.4988098144532	312.2272949218751	-731.3381958007814	-238.2516326904297	238.6590576171876	-668.2589111328126	-222.1457214355469	232.3163146972657	-712.7479248046876	-262.5935668945313	204.6420593261719	-744.1162109375001	-352.3929748535157	95.69973754882814	-690.6531372070314	-345.7008056640626	126.3081665039063	-777.8029785156252	-430.4656372070314	80.53639984130861	-744.9305419921876	-206.5506744384766	54.52925872802736	-761.7478637695314	-205.8207244873047	52.9608726501465	-719.8037109375001	-248.5532836914063	35.52604675292969	-671.3074340820314	322.8969726562501	1102.01904296875	-584.9501953125001	
495	2.47	-31.08738899230958	1410.250854492188	-757.3936157226564	-167.5552520751953	1394.80908203125	-785.6538085937502	-195.7617797851563	1377.869018554688	-653.3328857421876	-234.0572509765626	1304.58251953125	-717.7659301757814	-432.3020935058595	1038.734375	-735.9127197265626	-149.1146697998047	1178.657470703125	-717.4962158203126	-159.6427917480469	1255.834228515625	-846.9840087890627	-86.80185699462892	1183.799072265625	-946.4807739257815	-45.51627731323243	1197.295654296875	-921.0102539062502	-27.22651481628419	1150.537963867188	-955.706237792969	74.73601531982423	1117.393310546875	-957.8333129882815	65.36534118652345	1060.902709960938	-916.5630493164065	330.1036682128907	1126.249755859375	-834.680358886719	337.0378112792969	1123.5341796875	-908.8896484375002	412.6737060546876	1130.369506835938	-823.5271606445315	-149.5293273925782	1235.836791992188	-581.7781982421876	-78.40730285644533	1133.095581054688	-476.4431762695314	-36.86481094360352	1150.343994140625	-493.3244628906251	-18.92771148681641	1098.177001953125	-469.8158264160157	71.62949371337892	1072.917724609375	-469.0220642089845	65.22396850585939	1020.47412109375	-533.1243896484376	334.4520874023438	1106.079833984375	-512.6734619140626	414.5712280273439	1125.745361328125	-589.7937622070314	-358.6355590820313	817.987976074219	-859.272155761719	-355.5845336914063	844.0415649414065	-617.7082519531251	-505.9206542968751	948.3887329101565	-734.9478759765626	-525.9022827148439	923.682312011719	-761.0085449218751	-531.3826293945314	927.4461059570315	-704.1873168945314	-415.5300292968751	511.0991821289064	-912.7773437500002	-380.2626037597657	435.3482055664064	-894.4594726562502	-339.4294738769532	438.9761657714845	-866.6834106445315	-411.7320251464845	384.8731384277345	-884.3222656250002	-424.7518310546876	341.4990844726563	-884.8460693359377	-433.2799682617189	341.8905944824219	-748.8594970703126	-592.0034790039064	263.2022094726563	-835.3002929687502	-635.8658447265626	314.3635253906251	-890.5188598632815	-639.4498901367189	276.3463134765626	-868.610534667969	-718.3948974609376	271.9758300781251	-836.5895996093752	-839.8221435546877	323.1765747070313	-868.3103027343752	-815.5871582031252	318.1976318359376	-782.3206787109377	-869.9425048828127	385.5914306640626	-829.1877441406252	-880.666442871094	166.1204833984375	-775.4663696289065	-880.9710083007815	160.6846618652344	-814.572692871094	-905.0268554687502	192.4804382324219	-868.4976806640627	-344.5145568847657	656.6328125000001	-552.0508422851564	-281.3137207031251	638.2423095703126	-560.5291137695314	-257.5914001464844	659.6520385742189	-568.1581420898439	-255.0748291015626	561.9632568359376	-585.8506469726564	-171.3326721191407	458.4448852539064	-624.7051391601564	-178.3582153320313	465.2429504394532	-751.0209350585939	-191.3558807373047	312.0375366210938	-731.7144775390626	-238.0550842285157	238.5588378906251	-668.4953002929689	-221.9588165283204	232.2512359619141	-712.9044189453126	-262.5527038574219	204.5423126220704	-744.3358764648439	-352.3738708496094	95.7277069091797	-690.7376098632814	-345.6963500976563	126.2915725708008	-777.8562622070315	-430.456756591797	80.53200531005861	-744.9416503906251	-206.5530395507813	54.5389862060547	-761.7547607421876	-205.8098602294922	52.98447418212892	-719.8494262695314	-248.5206298828126	35.57384109497071	-671.3497924804689	322.8902282714844	1100.876220703125	-585.7944335937501	
496	2.475	-31.22370338439942	1408.951782226563	-757.4508056640626	-167.3013916015625	1393.47900390625	-785.8292236328127	-195.5614471435547	1376.521728515625	-653.2321777343751	-233.7689361572266	1303.432495117188	-717.9000854492189	-432.2631835937501	1037.716186523438	-735.9295043945314	-148.9845428466797	1177.273559570313	-717.7574462890626	-159.5349426269532	1254.535766601563	-847.0993652343752	-86.56221008300783	1182.40966796875	-946.6424560546877	-45.34045791625977	1195.982177734375	-921.2238769531252	-27.06336975097657	1149.300048828125	-955.8062744140627	74.70287322998048	1116.103881835938	-957.855163574219	65.5529251098633	1059.6064453125	-916.904235839844	330.3383178710938	1124.854125976563	-834.8967285156252	337.2814941406251	1122.02880859375	-909.1766357421877	412.8256835937501	1128.970581054688	-823.8052368164065	-149.2576599121094	1234.53857421875	-581.9514770507814	-78.19509887695314	1131.960571289063	-476.6099243164064	-36.62920379638673	1149.198852539063	-493.4613037109376	-18.68112564086914	1097.121215820313	-469.9728088378907	71.91943359375001	1071.765258789063	-469.0503234863282	65.54067993164064	1019.357421875	-533.1696166992189	334.7278747558594	1105.075439453125	-512.7425537109376	414.8208618164064	1124.741455078125	-589.8928833007814	-359.0325012207032	816.8745117187502	-859.168640136719	-355.5104370117188	842.6862792968752	-617.6333007812501	-506.0720520019532	947.4213867187502	-734.8585205078126	-525.9556884765626	922.6721801757815	-760.8411865234376	-531.2634887695314	926.522644042969	-704.1042480468751	-415.866424560547	510.0999755859376	-912.5498046875002	-380.5863647460938	434.2320556640626	-894.2736816406252	-339.8442687988282	437.8854064941407	-866.4749145507815	-412.0366821289064	383.9179992675782	-884.1421508789065	-425.0799865722657	340.5256652832032	-884.6829223632815	-433.5831909179689	340.9743041992188	-748.5772705078126	-592.2948608398439	262.3185729980469	-834.951354980469	-636.2159423828126	313.6146850585938	-890.186218261719	-639.8416137695314	275.5636291503907	-868.3033447265627	-718.7373657226564	271.2070007324219	-836.4539184570315	-840.060241699219	322.6247863769532	-868.0412597656252	-815.8505859375002	317.5698852539063	-782.0087890625002	-870.1960449218752	385.0928649902345	-828.929626464844	-881.1571044921877	165.5605163574219	-775.2066040039065	-881.3782348632815	160.3480224609375	-814.4531860351565	-905.618347167969	191.9517364501953	-868.2260742187502	-344.2960815429688	656.0689086914064	-552.0119018554689	-281.0671386718751	637.6947631835939	-560.7006835937501	-257.3892211914063	659.1840209960939	-568.3516845703126	-254.7058868408204	561.4898071289064	-586.0208740234376	-170.8726654052735	458.2057495117189	-625.0509033203126	-178.0415344238282	465.0892944335939	-751.2878417968751	-191.1742248535157	311.9104309082032	-732.0770263671876	-237.8180694580079	238.4631042480469	-668.7439575195314	-221.7522277832032	232.1137084960938	-713.1260375976564	-262.3906860351563	204.4452667236329	-744.4869995117189	-352.2990417480469	95.71398925781251	-690.7812500000001	-345.7312316894532	126.2542572021485	-777.9088134765627	-430.4532470703126	80.51853179931642	-744.9443359375001	-206.5463562011719	54.52999877929689	-761.8196411132814	-205.7957305908204	53.015193939209	-719.8516235351564	-248.5203094482422	35.6029396057129	-671.3565673828126	323.2332763671876	1100.107421875	-585.2642211914064	
497	2.48	-30.9363136291504	1407.728637695313	-757.7852783203126	-166.964828491211	1392.260498046875	-785.915710449219	-195.2805938720704	1375.356201171875	-653.4887084960939	-233.5186157226563	1302.115356445313	-718.0059204101564	-432.2083129882814	1036.65234375	-735.9895019531251	-148.5175170898438	1175.986694335938	-717.7274169921876	-159.2934722900391	1253.2255859375	-847.2110595703127	-86.31008911132814	1181.096557617188	-946.721618652344	-45.00788497924805	1194.520385742188	-921.3904418945315	-26.97757720947266	1148.275024414063	-956.3279418945315	74.92974090576173	1114.536865234375	-958.105407714844	65.56341552734376	1058.144287109375	-916.602478027344	330.5368957519532	1123.438598632813	-835.1235351562502	337.3249206542969	1120.539916992188	-909.342712402344	413.3489685058595	1127.532104492188	-824.2192382812502	-148.9245910644532	1233.50830078125	-582.0498657226564	-77.88960266113283	1130.818481445313	-476.6508178710939	-36.35449981689454	1148.053955078125	-493.5790100097657	-18.4445858001709	1095.977172851563	-469.9751892089845	72.15763092041017	1070.684936523438	-469.1148376464845	65.81374359130861	1018.229125976563	-533.2025756835939	334.9664916992188	1103.903564453125	-512.8127441406251	415.0162353515626	1123.717407226563	-590.0634765625001	-359.2777709960938	815.5751953125002	-859.232116699219	-355.6825561523438	841.6894531250002	-617.6523437500001	-506.1500549316407	946.5051269531252	-734.7840576171876	-526.2251586914064	921.653503417969	-760.7477416992189	-531.3807983398439	925.6706542968752	-703.9529418945314	-416.2416992187501	509.2457885742189	-912.4244384765627	-380.9378356933594	433.0447998046876	-894.1050415039065	-340.1943054199219	436.7854003906251	-866.5262451171877	-412.3392028808595	382.8479614257813	-884.025085449219	-425.4674072265626	339.4709472656251	-884.4585571289065	-433.8794250488282	339.9422302246094	-748.3826293945314	-592.6891479492189	261.6387939453126	-834.8464355468752	-636.7304687500001	312.8006286621094	-890.026550292969	-640.4651489257814	274.8083801269532	-868.0268554687502	-719.1917724609376	270.7282714843751	-836.4545898437502	-840.350524902344	321.9332275390626	-867.6593017578127	-816.1925048828127	316.9827880859376	-781.6671142578127	-870.4434814453127	384.5668945312501	-828.628356933594	-881.6172485351565	165.0610961914063	-775.1204833984377	-881.9669189453127	159.9450378417969	-814.246520996094	-906.0695800781252	191.523681640625	-868.064392089844	-344.0825195312501	655.5242919921876	-552.0864257812501	-280.8378906250001	637.1366577148439	-560.8264160156251	-257.1897583007813	658.7661132812501	-568.4689941406251	-254.379379272461	561.0592041015626	-586.2164306640626	-170.405258178711	458.0316162109376	-625.3652343750001	-177.760726928711	464.8850708007814	-751.6073608398439	-190.9556274414063	311.7406616210938	-732.4294433593751	-237.6183624267579	238.3176422119141	-669.0180664062501	-221.6021118164063	231.9460449218751	-713.3579711914064	-262.1921386718751	204.3469696044922	-744.6857299804689	-352.2901611328126	95.72721099853517	-690.7940673828126	-345.7132873535157	126.244613647461	-777.9959106445315	-430.4295959472657	80.50532531738283	-744.9643554687501	-206.5553131103516	54.53609848022462	-761.8425292968751	-205.8078155517579	52.99581146240236	-719.9400024414064	-248.5137634277344	35.62921524047852	-671.3751220703126	323.4815979003907	1098.79052734375	-585.4977416992189	
